<?xml version="1.0" encoding="UTF-8"?>
<svg width="512" height="512" viewBox="0 0 512 512" fill="none" xmlns="http://www.w3.org/2000/svg">
  <rect width="512" height="512" rx="256" fill="white"/>
  <circle cx="256" cy="256" r="200" fill="#4285F4"/>
  <circle cx="256" cy="256" r="150" fill="white"/>
  <path d="M256 163C205.5 163 165 203.5 165 254C165 304.5 205.5 345 256 345C306.5 345 347 304.5 347 254C347 203.5 306.5 163 256 163ZM256 315C223.2 315 195 286.8 195 254C195 221.2 223.2 193 256 193C288.8 193 317 221.2 317 254C317 286.8 288.8 315 256 315Z" fill="#4285F4"/>
  <rect x="357" y="250" width="50" height="150" rx="25" transform="rotate(45 357 250)" fill="#4285F4"/>
</svg>